# xmcd
#
# Track frame offsets: 
#        150
#        18190
#        39121
#        55296
#        77393
#        96916
#        115204
#        148948
#        171411
#        195529
#        227042
#        249391
#        267035
#        286152
#
# Disc length: 4131 seconds
#
# Revision: 1
# Processed by: cddbd v1.5.2PL0 Copyright (c) Steve Scherf et al.
# Submitted via: ExactAudioCopy v0.90b4
#
DISCID=b410210e
DTITLE=David Lynch - Crazy Clown Time
DYEAR=2011
DGENRE=Cult
TTITLE0=Pinky's Dream
TTITLE1=Good Day Today
TTITLE2=So Glad
TTITLE3=Noah's Ark
TTITLE4=Football Game
TTITLE5=I Know
TTITLE6=Strange and Unproductive Thinking
TTITLE7=The Night Bell with Lightning
TTITLE8=Stone's Gone Up
TTITLE9=Crazy Clown Time
TTITLE10=These Are My Friends
TTITLE11=Speed Roadster
TTITLE12=Movin' On
TTITLE13=She Rise Up
EXTD=
EXTT0=
EXTT1=
EXTT2=
EXTT3=
EXTT4=
EXTT5=
EXTT6=
EXTT7=
EXTT8=
EXTT9=
EXTT10=
EXTT11=
EXTT12=
EXTT13=
PLAYORDER=
